<?xml version="1.0" encoding="utf-8"?>
<!-- Generator: Adobe Illustrator 16.0.3, SVG Export Plug-In . SVG Version: 6.00 Build 0)  -->
<!DOCTYPE svg PUBLIC "-//W3C//DTD SVG 1.1//EN" "http://www.w3.org/Graphics/SVG/1.1/DTD/svg11.dtd">
<svg version="1.1" id="Layer_1" xmlns="http://www.w3.org/2000/svg" xmlns:xlink="http://www.w3.org/1999/xlink" x="0px" y="0px"
	 width="600px" height="800px" viewBox="0 0 600 800" enable-background="new 0 0 600 800" xml:space="preserve">
<g>
	<polygon fill="#3F6088" points="370.896,385.728 507.234,189.503 339.232,190.089 224.814,367.487 223.585,8.879 78.32,218.923 
		79.344,516.028 80.144,746.936 81.835,759.426 225.871,551.147 225.326,515.525 224.955,408.25 343.869,595.45 343.852,595.45 
		207.507,791.675 385.342,791.064 521.68,594.831 	"/>
	<polygon fill="#ECD480" points="236.199,8.829 237.264,318.334 332.27,170.727 510.461,170.157 509.908,7.889 	"/>
	<polygon fill="#ECD480" points="237.726,452.841 238.122,566.955 80.292,792.111 190.651,791.732 324.086,596.061 	"/>
	<polygon fill="#ECD480" points="515.826,210.124 521.564,561.271 399.846,389.936 	"/>
</g>
<g>
</g>
<g>
</g>
<g>
</g>
<g>
</g>
<g>
</g>
<g>
</g>
<g>
</g>
<g>
</g>
<g>
</g>
<g>
</g>
<g>
</g>
<g>
</g>
<g>
</g>
<g>
</g>
<g>
</g>
</svg>
