<?xml version="1.0" encoding="utf-8"?>
<!-- Generator: Adobe Illustrator 16.0.3, SVG Export Plug-In . SVG Version: 6.00 Build 0)  -->
<!DOCTYPE svg PUBLIC "-//W3C//DTD SVG 1.1//EN" "http://www.w3.org/Graphics/SVG/1.1/DTD/svg11.dtd">
<svg version="1.1" id="Layer_2" xmlns="http://www.w3.org/2000/svg" xmlns:xlink="http://www.w3.org/1999/xlink" x="0px" y="0px"
	 width="800px" height="600px" viewBox="0 0 800 600" enable-background="new 0 0 800 600" xml:space="preserve">
<g>
	<rect x="79.999" y="108.052" fill="#FDDD59" width="640.001" height="383.896"/>
	<g>
		<path fill="#21354E" d="M50.588,89.276H147.5v57.007h-27.281v307.433H147.5v57.008H50.588V89.276z"/>
		<path fill="#21354E" d="M160.649,153.206h72.888v179.572l57.415-88.36h83.882l-68.408,97.726l74.924,104.65h-88.769
			l-59.044-93.656v93.656h-72.888V153.206z"/>
		<path fill="#21354E" d="M451.797,141.805l49.27,11.401l-69.223,304.988l-49.677-11.4L451.797,141.805z"/>
		<path fill="#21354E" d="M511.816,375.534c13.438,16.287,30.947,25.654,47.641,25.654c13.031,0,21.582-6.516,21.582-15.881
			c0-4.072-2.443-8.553-6.922-11.402s-6.516-3.664-21.988-8.551c-13.438-4.072-23.211-7.736-30.541-12.217
			c-14.658-9.365-24.023-26.467-24.023-45.605c0-40.312,33.797-68.815,81.439-68.815c26.875,0,52.121,7.737,69.631,22.396
			l-22.805,46.012c-11.4-10.585-26.875-17.508-37.461-17.508c-12.623,0-21.174,5.701-21.174,14.252c0,3.664,2.443,7.328,6.922,10.18
			c4.479,2.443,7.736,3.664,21.988,7.736c16.695,4.479,25.246,7.33,32.982,12.217c14.66,9.365,23.617,26.467,23.617,46.826
			c0,43.57-35.018,72.482-87.139,72.482c-34.611,0-58.637-9.773-79.404-31.355L511.816,375.534z"/>
		<path fill="#21354E" d="M652.5,453.716h27.281V146.283H652.5V89.276h96.912v421.447H652.5V453.716z"/>
	</g>
</g>
<g>
</g>
<g>
</g>
<g>
</g>
<g>
</g>
<g>
</g>
<g>
</g>
<g>
</g>
<g>
</g>
<g>
</g>
<g>
</g>
<g>
</g>
<g>
</g>
<g>
</g>
<g>
</g>
<g>
</g>
</svg>
